HIERARCHY
ROOT Hips
{
	OFFSET 0.000000 88.474243 0.000000
	CHANNELS 6 Xposition Yposition Zposition Zrotation Yrotation Xrotation 
	JOINT Hips_Spine
	{
		OFFSET 0.000000 0.000000 0.000000
		CHANNELS 3 Zrotation Yrotation Xrotation
		JOINT Spine
		{
			OFFSET 0.005100 8.711998 -0.691000
			CHANNELS 3 Zrotation Yrotation Xrotation
			JOINT Spine1
			{
				OFFSET -0.009200 8.660301 -1.275000
				CHANNELS 3 Zrotation Yrotation Xrotation
				JOINT Spine2
				{
					OFFSET 0.006300 9.852501 -1.857000
					CHANNELS 3 Zrotation Yrotation Xrotation
					JOINT Spine2_Neck
					{
						OFFSET 0.000000 0.000000 0.000000
						CHANNELS 3 Zrotation Yrotation Xrotation
						JOINT Neck
						{
							OFFSET 0.016300 11.420799 -0.263300
							CHANNELS 3 Zrotation Yrotation Xrotation
							End Site #name: Head
							{
								OFFSET -0.019200 9.262405 2.362500
							}
						}
					}
					JOINT Spine2_LeftShoulder
					{
						OFFSET 0.000000 0.000000 0.000000
						CHANNELS 3 Zrotation Yrotation Xrotation
						JOINT LeftShoulder
						{
							OFFSET 5.616900 6.732201 -0.345700
							CHANNELS 3 Zrotation Yrotation Xrotation
							JOINT LeftArm
							{
								OFFSET 10.664888 -0.183372 -2.440700
								CHANNELS 3 Zrotation Yrotation Xrotation
								JOINT LeftForeArm
								{
									OFFSET 27.459126 0.000000 0.000000
									CHANNELS 3 Zrotation Yrotation Xrotation
									End Site #name: LeftHand
									{
										OFFSET 21.306858 0.000000 0.000000
									}
								}
							}
						}
					}
					JOINT Spine2_RightShoulder
					{
						OFFSET 0.000000 0.000000 0.000000
						CHANNELS 3 Zrotation Yrotation Xrotation
						JOINT RightShoulder
						{
							OFFSET -5.580300 6.737503 -0.344400
							CHANNELS 3 Zrotation Yrotation Xrotation
							JOINT RightArm
							{
								OFFSET -10.679335 -0.188484 -2.383900
								CHANNELS 3 Zrotation Yrotation Xrotation
								JOINT RightForeArm
								{
									OFFSET -27.503529 0.000000 0.000000
									CHANNELS 3 Zrotation Yrotation Xrotation
									End Site #name: RightHand
									{
										OFFSET -21.306808 0.000000 0.000000
									}
								}
							}
						}
					}
				}
			}
		}
	}
	JOINT Hips_LeftUpLeg
	{
		OFFSET 0.000000 0.000000 0.000000
		CHANNELS 3 Zrotation Yrotation Xrotation
		JOINT LeftUpLeg
		{
			OFFSET 6.857700 -6.739601 0.312100
			CHANNELS 3 Zrotation Yrotation Xrotation
			JOINT LeftLeg
			{
				OFFSET -0.367590 -34.731552 -4.572400
				CHANNELS 3 Zrotation Yrotation Xrotation
				End Site #name: LeftFoot
				{
					OFFSET 0.367590 -34.656704 -6.067400
				}
			}
		}
	}
	JOINT Hips_RightUpLeg
	{
		OFFSET 0.000000 0.000000 0.000000
		CHANNELS 3 Zrotation Yrotation Xrotation
		JOINT RightUpLeg
		{
			OFFSET -6.876100 -6.733299 0.301000
			CHANNELS 3 Zrotation Yrotation Xrotation
			JOINT RightLeg
			{
				OFFSET 0.347353 -34.795158 -4.515900
				CHANNELS 3 Zrotation Yrotation Xrotation
				End Site #name: RightFoot
				{
					OFFSET -0.347353 -34.589367 -6.070300
				}
			}
		}
	}
}
MOTION
Frames: 18
Frame Time: 0.041667
0.130360 0.078560 -0.115431 -3.840635 -2.827216 -11.235800 0.000000 0.000000 0.000000 4.453541 -1.062670 14.235511 1.738968 -0.360063 5.373328 0.000000 0.000000 0.000000 1.741709 -0.345635 5.373507 3.316404 0.159369 6.994213 1.741709 -0.345635 5.373507 -15.278594 -5.543554 1.998490 -59.386824 -28.373301 12.444763 0.000043 -62.020706 -0.000042 1.741709 -0.345635 5.373507 11.441238 0.124764 0.675894 64.266969 37.285180 26.825344 -0.000006 37.972341 0.000004 0.000000 0.000000 0.000000 7.514539 7.962344 -64.455058 2.337962 -4.065394 60.384350 0.000000 0.000000 0.000000 -0.873354 -7.552407 -63.384261 0.460626 -1.437624 62.955081 
0.110137 0.080017 -0.130142 -3.747361 -2.967142 -11.223540 0.000000 0.000000 0.000000 4.493279 -1.255377 14.244866 1.742065 -0.435161 5.377063 0.000000 0.000000 0.000000 1.745326 -0.422766 5.377071 3.434991 0.207339 7.230779 1.745326 -0.422766 5.377071 -15.285683 -5.589896 2.009302 -58.897448 -30.426141 13.699457 -0.000027 -63.256089 0.000019 1.745326 -0.422766 5.377071 11.363133 0.104333 0.669547 64.812392 37.791248 27.400559 0.000010 37.407512 0.000002 0.000000 0.000000 0.000000 7.524158 8.081599 -64.418411 2.347385 -3.994659 60.353673 0.000000 0.000000 0.000000 -0.820802 -7.539724 -63.431909 0.575240 -1.364683 62.932119 
0.077021 0.079666 -0.136624 -3.639555 -3.119354 -11.225690 0.000000 0.000000 0.000000 4.517209 -1.448929 14.280437 1.737514 -0.510459 5.385738 0.000000 0.000000 0.000000 1.741346 -0.500146 5.385514 3.529448 0.251388 7.405936 1.741346 -0.500146 5.385514 -15.300790 -5.649567 2.023749 -58.241601 -32.797331 15.118541 0.000021 -63.833650 -0.000031 1.741346 -0.500146 5.385514 11.253868 0.070568 0.659766 65.436688 38.287009 28.038632 -0.000037 36.857945 -0.000011 0.000000 0.000000 0.000000 7.536437 8.233519 -64.365463 2.332351 -3.919697 60.341193 0.000000 0.000000 0.000000 -0.781247 -7.464037 -63.474319 0.651521 -1.275723 62.933210 
0.035640 0.081337 -0.135510 -3.515750 -3.280087 -11.220584 0.000000 0.000000 0.000000 4.519200 -1.650146 14.321626 1.727257 -0.589502 5.395647 0.000000 0.000000 0.000000 1.731736 -0.581014 5.395149 3.611169 0.288513 7.532328 1.731736 -0.581014 5.395149 -15.300949 -5.707821 2.036630 -57.513876 -35.397708 16.588641 -0.000070 -63.500112 0.000024 1.731736 -0.581014 5.395149 11.147814 0.027796 0.648503 66.113784 38.782706 28.733046 -0.000006 36.311925 -0.000014 0.000000 0.000000 0.000000 7.551755 8.381889 -64.309084 2.329431 -3.836456 60.329821 0.000000 0.000000 0.000000 -0.752372 -7.365407 -63.527762 0.725040 -1.173145 62.944504 
-0.008289 0.086670 -0.128576 -3.384922 -3.444703 -11.184307 0.000000 0.000000 0.000000 4.514718 -1.858472 14.346860 1.718290 -0.672004 5.402195 0.000000 0.000000 0.000000 1.723447 -0.665075 5.401411 3.682855 0.314542 7.623148 1.723447 -0.665075 5.401411 -15.286647 -5.767293 2.048551 -56.793356 -38.056010 18.040077 -0.000023 -62.206276 0.000013 1.723447 -0.665075 5.401411 11.061834 -0.018388 0.637326 66.784825 39.267786 29.483354 -0.000005 35.799884 0.000007 0.000000 0.000000 0.000000 7.572843 8.501484 -64.272416 2.362054 -3.746988 60.309463 0.000000 0.000000 0.000000 -0.717867 -7.290925 -63.611237 0.829744 -1.070432 62.957346 
-0.052922 0.095566 -0.114123 -3.258220 -3.617799 -11.111131 0.000000 0.000000 0.000000 4.515674 -2.063636 14.354774 1.711408 -0.753227 5.404676 0.000000 0.000000 0.000000 1.717208 -0.747942 5.403562 3.764045 0.327281 7.697117 1.717208 -0.747942 5.403562 -15.274963 -5.841644 2.063968 -56.112295 -40.547628 19.400808 -0.000028 -60.177272 0.000032 1.717208 -0.747942 5.403562 10.993421 -0.070031 0.625779 67.426414 39.732997 30.302067 0.000002 35.335524 0.000004 0.000000 0.000000 0.000000 7.605956 8.602324 -64.263951 2.423196 -3.655732 60.286994 0.000000 0.000000 0.000000 -0.669400 -7.235094 -63.726975 0.958196 -0.974926 62.968555 
-0.100745 0.107193 -0.091525 -3.150618 -3.817212 -11.010511 0.000000 0.000000 0.000000 4.519172 -2.270769 14.373743 1.700475 -0.834772 5.410330 0.000000 0.000000 0.000000 1.706937 -0.831669 5.408772 3.886677 0.334614 7.765851 1.706937 -0.831669 5.408772 -15.274452 -5.933689 2.084242 -55.423783 -42.628209 20.544437 -0.000014 -57.900108 -0.000017 1.706937 -0.831669 5.408772 10.935106 -0.132745 0.612586 68.106919 40.216208 31.202323 -0.000019 34.876379 0.000000 0.000000 0.000000 0.000000 7.668538 8.718772 -64.276532 2.491755 -3.566886 60.274715 0.000000 0.000000 0.000000 -0.598226 -7.148547 -63.862441 1.075696 -0.886098 62.970494 
-0.153187 0.120331 -0.065686 -3.081311 -4.061968 -10.890210 0.000000 0.000000 0.000000 4.522145 -2.501965 14.445497 1.682666 -0.925314 5.431716 0.000000 0.000000 0.000000 1.689945 -0.925081 5.429509 4.066351 0.346533 7.811254 1.689945 -0.925081 5.429509 -15.282367 -6.031684 2.106562 -54.607671 -44.080745 21.322526 0.000029 -55.995086 -0.000026 1.689945 -0.925081 5.429509 10.893686 -0.209517 0.597418 68.900258 40.771433 32.168476 0.000031 34.410083 0.000013 0.000000 0.000000 0.000000 7.783422 8.874642 -64.303780 2.560119 -3.484415 60.276174 0.000000 0.000000 0.000000 -0.477571 -7.001327 -64.005128 1.163295 -0.808596 62.954612 
-0.205458 0.134049 -0.041704 -3.055916 -4.353964 -10.745579 0.000000 0.000000 0.000000 4.528382 -2.763183 14.584283 1.661585 -1.027316 5.473847 0.000000 0.000000 0.000000 1.669911 -1.030432 5.470777 4.292207 0.362253 7.816957 1.669911 -1.030432 5.470777 -15.289277 -6.122868 2.127291 -53.652525 -44.849036 21.744329 -0.000017 -54.748553 0.000002 1.669911 -1.030432 5.470777 10.888044 -0.294631 0.581834 69.762617 41.381305 33.149035 -0.000002 34.027389 -0.000002 0.000000 0.000000 0.000000 7.953018 9.061950 -64.352030 2.639805 -3.407703 60.287353 0.000000 0.000000 0.000000 -0.298544 -6.818419 -64.158729 1.247235 -0.745711 62.912025 
-0.250377 0.148857 -0.017683 -3.059941 -4.670434 -10.572386 0.000000 0.000000 0.000000 4.541736 -3.033891 14.762396 1.641925 -1.132769 5.527275 0.000000 0.000000 0.000000 1.651479 -1.139359 5.523169 4.541559 0.376181 7.810974 1.651479 -1.139359 5.523169 -15.285698 -6.205165 2.145151 -52.762251 -45.087425 21.992346 0.000007 -53.830521 -0.000005 1.651479 -1.139359 5.523169 10.924079 -0.370938 0.569034 70.561665 41.957943 34.092894 -0.000034 33.829657 -0.000007 0.000000 0.000000 0.000000 8.152846 9.249267 -64.426452 2.742700 -3.332981 60.303794 0.000000 0.000000 0.000000 -0.085429 -6.644318 -64.329217 1.357586 -0.695498 62.849576 
-0.285742 0.166725 0.011639 -3.080641 -4.979863 -10.383202 0.000000 0.000000 0.000000 4.561981 -3.284334 14.942571 1.626183 -1.229994 5.579371 0.000000 0.000000 0.000000 1.637017 -1.239825 5.574204 4.806826 0.386485 7.839218 1.637017 -1.239825 5.574204 -15.266418 -6.284963 2.161058 -52.152899 -45.019998 22.169079 -0.000005 -52.784354 -0.000008 1.637017 -1.239825 5.574204 10.991224 -0.425932 0.560937 71.201935 42.433197 34.965950 -0.000011 33.809293 -0.000015 0.000000 0.000000 0.000000 8.357012 9.412848 -64.515279 2.863347 -3.264129 60.324393 0.000000 0.000000 0.000000 0.129658 -6.502808 -64.503076 1.497968 -0.657149 62.780125 
-0.314274 0.190003 0.047123 -3.117815 -5.272142 -10.195743 0.000000 0.000000 0.000000 4.588849 -3.487215 15.102393 1.615878 -1.308211 5.625254 0.000000 0.000000 0.000000 1.627848 -1.320872 5.619094 5.091176 0.398747 7.921358 1.627848 -1.320872 5.619094 -15.236629 -6.362985 2.175578 -51.839129 -44.783920 22.153215 0.000023 -51.677928 -0.000020 1.627848 -1.320872 5.619094 11.065392 -0.464298 0.555979 71.693826 42.800542 35.734801 0.000008 33.865242 -0.000002 0.000000 0.000000 0.000000 8.556724 9.561117 -64.599198 2.984711 -3.210183 60.344694 0.000000 0.000000 0.000000 0.334429 -6.385620 -64.657354 1.656674 -0.632216 62.702135 
-0.337366 0.218865 0.085184 -3.163628 -5.555129 -10.014427 0.000000 0.000000 0.000000 4.620282 -3.621777 15.220513 1.612186 -1.359412 5.660887 0.000000 0.000000 0.000000 1.624917 -1.374235 5.653982 5.376001 0.423857 8.050370 1.624917 -1.374235 5.653982 -15.200875 -6.426977 2.186433 -51.698680 -44.439396 21.837410 -0.000013 -51.007197 0.000001 1.624917 -1.374235 5.653982 11.115035 -0.491641 0.552333 72.093290 43.067735 36.349146 -0.000013 33.901108 0.000002 0.000000 0.000000 0.000000 8.745134 9.709247 -64.671522 3.101915 -3.170033 60.358404 0.000000 0.000000 0.000000 0.523863 -6.276357 -64.789652 1.826113 -0.616557 62.609866 
-0.353505 0.251229 0.121724 -3.190867 -5.812564 -9.844748 0.000000 0.000000 0.000000 4.648623 -3.680217 15.273675 1.614660 -1.381150 5.678636 0.000000 0.000000 0.000000 1.627683 -1.397105 5.671349 5.613168 0.470060 8.209253 1.627683 -1.397105 5.671349 -15.146389 -6.460817 2.188921 -51.647059 -44.098417 21.413614 0.000003 -50.977646 -0.000009 1.627683 -1.397105 5.671349 11.124996 -0.496279 0.551549 72.387938 43.217751 36.741724 0.000012 33.896501 -0.000004 0.000000 0.000000 0.000000 8.896993 9.831023 -64.728581 3.227651 -3.133407 60.354642 0.000000 0.000000 0.000000 0.673698 -6.188215 -64.907499 1.997424 -0.601564 62.514768 
-0.361819 0.284676 0.152159 -3.170402 -5.989228 -9.716310 0.000000 0.000000 0.000000 4.668958 -3.668918 15.264140 1.622929 -1.375926 5.678033 0.000000 0.000000 0.000000 1.635823 -1.391855 5.670796 5.750544 0.540128 8.373012 1.635823 -1.391855 5.670796 -15.074947 -6.461258 2.182524 -51.644938 -43.944955 21.223188 -0.000000 -51.224629 -0.000012 1.635823 -1.391855 5.670796 11.100773 -0.450213 0.557730 72.450023 43.210518 36.837660 0.000015 33.954354 -0.000011 0.000000 0.000000 0.000000 8.973692 9.864836 -64.750124 3.369512 -3.098449 60.317623 0.000000 0.000000 0.000000 0.744789 -6.171265 -64.996712 2.153128 -0.584537 62.439311 
-0.363234 0.316887 0.171213 -3.095791 -6.040238 -9.664320 0.000000 0.000000 0.000000 4.686065 -3.604533 15.229983 1.637678 -1.349961 5.670021 0.000000 0.000000 0.000000 1.650183 -1.364775 5.663143 5.761674 0.637033 8.507916 1.650183 -1.364775 5.663143 -15.035471 -6.443704 2.175093 -51.586096 -44.014279 21.321978 0.000016 -51.459308 -0.000010 1.650183 -1.364775 5.663143 11.048773 -0.360487 0.569642 72.194346 43.046292 36.662227 -0.000012 34.193733 -0.000005 0.000000 0.000000 0.000000 8.955597 9.777042 -64.712930 3.515547 -3.071998 60.239783 0.000000 0.000000 0.000000 0.724485 -6.263748 -65.027779 2.287895 -0.565908 62.400993 
-0.359730 0.342713 0.175344 -2.984764 -5.979239 -9.689217 0.000000 0.000000 0.000000 4.699867 -3.514364 15.217476 1.657275 -1.313785 5.667710 0.000000 0.000000 0.000000 1.669386 -1.326639 5.661412 5.657466 0.765502 8.588334 1.669386 -1.326639 5.661412 -15.085478 -6.428653 2.176332 -51.311126 -43.980459 21.193759 -0.000009 -52.146005 0.000008 1.669386 -1.326639 5.661412 10.973359 -0.247094 0.583773 71.669782 42.770519 36.317314 -0.000015 34.663139 0.000013 0.000000 0.000000 0.000000 8.859858 9.603907 -64.627245 3.641456 -3.055323 60.136109 0.000000 0.000000 0.000000 0.633591 -6.440540 -65.001205 2.402649 -0.543855 62.398377 
-0.354014 0.354523 0.163104 -2.870931 -5.868177 -9.749759 0.000000 0.000000 0.000000 4.702316 -3.426988 15.245195 1.677225 -1.279231 5.676914 0.000000 0.000000 0.000000 1.689088 -1.289499 5.671268 5.477794 0.922872 8.621870 1.689088 -1.289499 5.671268 -15.230932 -6.422661 2.188208 -50.779610 -43.325526 19.959022 0.000018 -54.235192 -0.000026 1.689088 -1.289499 5.671268 10.883288 -0.121172 0.598448 71.026628 42.455411 35.913725 -0.000033 35.303783 -0.000011 0.000000 0.000000 0.000000 8.732367 9.429586 -64.543275 3.721786 -3.044094 60.040160 0.000000 0.000000 0.000000 0.516680 -6.619366 -64.959264 2.485905 -0.519503 62.417721 
